<svg width="212" height="92" viewBox="0 0 212 92" fill="none" xmlns="http://www.w3.org/2000/svg">
<path fill-rule="evenodd" clip-rule="evenodd" d="M91.9569 48.01C91.9855 47.3436 92 46.6735 92 46C92 45.6035 91.995 45.2081 91.985 44.814H95.6858C95.6631 43.59 95.2211 42.6153 94.3598 41.89C93.6186 41.2463 92.7347 40.8796 91.7082 40.7898C91.5585 39.462 91.3523 38.1514 91.092 36.8603C91.1722 36.8588 91.2528 36.858 91.3338 36.858C93.1244 36.858 94.7224 37.2433 96.1278 38.014C97.5558 38.7847 98.6551 39.884 99.4258 41.312C100.219 42.7173 100.616 44.338 100.616 46.174C100.616 46.854 100.57 47.466 100.48 48.01H91.9569ZM91.5649 52.3527C91.4559 52.3589 91.3449 52.362 91.2318 52.362C90.0078 52.362 88.9764 51.9767 88.1378 51.206C87.2991 50.4353 86.8231 49.37 86.7098 48.01H91.9569C91.8938 49.4764 91.7621 50.925 91.5649 52.3527ZM90.8433 56.2961C86.1677 76.7442 67.8654 92 46 92C20.5949 92 0 71.4051 0 46C0 20.5949 20.5949 0 46 0C68.2757 0 86.8533 15.8336 91.092 36.8603C89.3323 36.8933 87.7695 37.2892 86.4038 38.048C84.9758 38.8413 83.8651 39.9747 83.0718 41.448C82.2784 42.9213 81.8818 44.6327 81.8818 46.582C81.8818 48.5087 82.2784 50.2087 83.0718 51.682C83.8878 53.1553 85.0098 54.3 86.4378 55.116C87.7564 55.8372 89.225 56.2305 90.8433 56.2961ZM90.8433 56.2961C91.1393 55.0016 91.3807 53.6863 91.5649 52.3527C93.1587 52.2617 94.3056 51.5055 95.0058 50.084H100.14C99.5958 51.8973 98.5531 53.3933 97.0118 54.572C95.4704 55.728 93.5778 56.306 91.3338 56.306C91.1688 56.306 91.0053 56.3027 90.8433 56.2961ZM91.7082 40.7898C91.5418 40.7753 91.3717 40.768 91.1978 40.768C90.0191 40.768 89.0218 41.1307 88.2058 41.856C87.4124 42.5587 86.9251 43.5447 86.7438 44.814H91.985C91.9507 43.4572 91.8576 42.115 91.7082 40.7898ZM45 36.11V32.268H30.346V56H35.106V45.97H42.688V42.196H35.106V36.11H45ZM55.5153 37.742C54.5406 38.3087 53.7473 39.0907 53.1353 40.088V37.164H48.3753V56H53.1353V46.616C53.1353 44.8707 53.5093 43.6467 54.2573 42.944C55.028 42.2413 56.1613 41.89 57.6573 41.89H58.9153V36.892C57.646 36.892 56.5126 37.1753 55.5153 37.742ZM79.4954 48.01C79.5861 47.466 79.6314 46.854 79.6314 46.174C79.6314 44.338 79.2347 42.7173 78.4414 41.312C77.6707 39.884 76.5714 38.7847 75.1434 38.014C73.7381 37.2433 72.1401 36.858 70.3494 36.858C68.4907 36.858 66.8474 37.2547 65.4194 38.048C63.9914 38.8413 62.8807 39.9747 62.0874 41.448C61.2941 42.9213 60.8974 44.6327 60.8974 46.582C60.8974 48.5087 61.2941 50.2087 62.0874 51.682C62.9034 53.1553 64.0254 54.3 65.4534 55.116C66.9041 55.9093 68.5361 56.306 70.3494 56.306C72.5934 56.306 74.4861 55.728 76.0274 54.572C77.5687 53.3933 78.6114 51.8973 79.1554 50.084H74.0214C73.2734 51.6027 72.0154 52.362 70.2474 52.362C69.0234 52.362 67.9921 51.9767 67.1534 51.206C66.3147 50.4353 65.8387 49.37 65.7254 48.01H79.4954ZM73.3754 41.89C74.2367 42.6153 74.6787 43.59 74.7014 44.814H65.7594C65.9407 43.5447 66.4281 42.5587 67.2214 41.856C68.0374 41.1307 69.0347 40.768 70.2134 40.768C71.4601 40.768 72.5141 41.142 73.3754 41.89ZM108.85 56V30.84H104.09V56H108.85ZM113.451 41.448C112.703 42.9213 112.329 44.61 112.329 46.514C112.329 48.4407 112.703 50.152 113.451 51.648C114.222 53.1213 115.253 54.266 116.545 55.082C117.86 55.898 119.31 56.306 120.897 56.306C122.302 56.306 123.538 56.0227 124.603 55.456C125.691 54.8667 126.541 54.13 127.153 53.246V56H131.947V37.164H127.153V39.85C126.518 38.9887 125.668 38.2747 124.603 37.708C123.56 37.1413 122.336 36.858 120.931 36.858C119.322 36.858 117.86 37.2547 116.545 38.048C115.253 38.8413 114.222 39.9747 113.451 41.448ZM126.473 43.624C126.926 44.44 127.153 45.426 127.153 46.582C127.153 47.738 126.926 48.7353 126.473 49.574C126.02 50.39 125.408 51.0247 124.637 51.478C123.866 51.9087 123.039 52.124 122.155 52.124C121.294 52.124 120.478 51.8973 119.707 51.444C118.959 50.9907 118.347 50.3447 117.871 49.506C117.418 48.6447 117.191 47.6473 117.191 46.514C117.191 45.3807 117.418 44.406 117.871 43.59C118.347 42.7513 118.959 42.1167 119.707 41.686C120.455 41.2553 121.271 41.04 122.155 41.04C123.039 41.04 123.866 41.2667 124.637 41.72C125.408 42.1507 126.02 42.7853 126.473 43.624ZM152.474 39.034C151.091 37.606 149.278 36.892 147.034 36.892C145.855 36.892 144.767 37.13 143.77 37.606C142.795 38.0593 141.991 38.694 141.356 39.51V37.164H136.596V56H141.356V45.596C141.356 44.1 141.73 42.9553 142.478 42.162C143.249 41.346 144.291 40.938 145.606 40.938C146.898 40.938 147.918 41.346 148.666 42.162C149.414 42.9553 149.788 44.1 149.788 45.596V56H154.548V44.95C154.548 42.4113 153.857 40.4393 152.474 39.034ZM159.041 41.482C158.247 42.9327 157.851 44.6327 157.851 46.582C157.851 48.5313 158.247 50.2427 159.041 51.716C159.834 53.1667 160.933 54.3 162.339 55.116C163.744 55.9093 165.353 56.306 167.167 56.306C169.479 56.306 171.405 55.7053 172.947 54.504C174.488 53.3027 175.519 51.682 176.041 49.642H170.907C170.317 51.3647 169.059 52.226 167.133 52.226C165.773 52.226 164.696 51.7387 163.903 50.764C163.109 49.7667 162.713 48.3727 162.713 46.582C162.713 44.7687 163.109 43.3747 163.903 42.4C164.696 41.4027 165.773 40.904 167.133 40.904C168.085 40.904 168.878 41.142 169.513 41.618C170.17 42.0713 170.635 42.706 170.907 43.522H176.041C175.519 41.414 174.488 39.782 172.947 38.626C171.428 37.4473 169.501 36.858 167.167 36.858C165.353 36.858 163.744 37.266 162.339 38.082C160.933 38.8753 159.834 40.0087 159.041 41.482ZM196.902 48.01C196.992 47.466 197.038 46.854 197.038 46.174C197.038 44.338 196.641 42.7173 195.848 41.312C195.077 39.884 193.978 38.7847 192.55 38.014C191.144 37.2433 189.546 36.858 187.756 36.858C185.897 36.858 184.254 37.2547 182.826 38.048C181.398 38.8413 180.287 39.9747 179.494 41.448C178.7 42.9213 178.304 44.6327 178.304 46.582C178.304 48.5087 178.7 50.2087 179.494 51.682C180.31 53.1553 181.432 54.3 182.86 55.116C184.31 55.9093 185.942 56.306 187.756 56.306C190 56.306 191.892 55.728 193.434 54.572C194.975 53.3933 196.018 51.8973 196.562 50.084H191.428C190.68 51.6027 189.422 52.362 187.654 52.362C186.43 52.362 185.398 51.9767 184.56 51.206C183.721 50.4353 183.245 49.37 183.132 48.01H196.902ZM190.782 41.89C191.643 42.6153 192.085 43.59 192.108 44.814H183.166C183.347 43.5447 183.834 42.5587 184.628 41.856C185.444 41.1307 186.441 40.768 187.62 40.768C188.866 40.768 189.92 41.142 190.782 41.89ZM207.652 37.742C206.677 38.3087 205.884 39.0907 205.272 40.088V37.164H200.512V56H205.272V46.616C205.272 44.8707 205.646 43.6467 206.394 42.944C207.165 42.2413 208.298 41.89 209.794 41.89H211.052V36.892C209.783 36.892 208.649 37.1753 207.652 37.742Z" fill="white"/>
</svg>
